<svg width="960" height="300" viewBox="0 0 960 300" fill="none" xmlns="http://www.w3.org/2000/svg" role="img" aria-labelledby="title desc">
  <title id="title">Notes and Musings</title>
  <desc id="desc">A profile card about building useful systems.</desc>
  <rect x="1" y="1" width="958" height="298" rx="18" fill="#FFFFFF"/>
  <rect x="1" y="1" width="958" height="298" rx="18" stroke="#D0D7DE" stroke-width="2"/>
  <path d="M0 0H960V92H0V0Z" fill="#F7F7FB"/>
  <path d="M0 91H960" stroke="#D0D7DE" stroke-width="2"/>
  <circle cx="56" cy="46" r="14" fill="#6E56CF"/>
  <circle cx="96" cy="46" r="14" fill="#2FB8A6"/>
  <circle cx="136" cy="46" r="14" fill="#F2C94C"/>
  <text x="190" y="55" fill="#24292F" font-family="Inter, ui-sans-serif, system-ui, -apple-system, BlinkMacSystemFont, Segoe UI, sans-serif" font-size="28" font-weight="700">Build small systems that make hard things repeatable.</text>
  <g transform="translate(64 134)">
    <rect width="120" height="120" rx="28" fill="#F7F7FB" stroke="#D0D7DE" stroke-width="2"/>
    <path d="M36 74C36 49 50 34 74 34H84V49H75C61 49 54 57 54 74H36ZM70 74C70 49 84 34 108 34H118V49H109C95 49 88 57 88 74H70Z" fill="#6E56CF" transform="translate(-10 6)"/>
  </g>
  <text x="230" y="154" fill="#57606A" font-family="Inter, ui-sans-serif, system-ui, -apple-system, BlinkMacSystemFont, Segoe UI, sans-serif" font-size="23">My favorite work sits between curiosity and execution:</text>
  <text x="230" y="196" fill="#24292F" font-family="Inter, ui-sans-serif, system-ui, -apple-system, BlinkMacSystemFont, Segoe UI, sans-serif" font-size="30" font-weight="700">understand the problem, design the workflow, ship the tool.</text>
  <text x="230" y="238" fill="#57606A" font-family="Inter, ui-sans-serif, system-ui, -apple-system, BlinkMacSystemFont, Segoe UI, sans-serif" font-size="22">Curiosity gives the direction. Engineering makes it repeatable.</text>
</svg>
